<svg xmlns="http://www.w3.org/2000/svg" width="48" height="23.97" viewBox="0 0 48 23.97">
  <metadata><?xpacket begin="﻿" id="W5M0MpCehiHzreSzNTczkc9d"?>
<x:xmpmeta xmlns:x="adobe:ns:meta/" x:xmptk="Adobe XMP Core 5.6-c140 79.160451, 2017/05/06-01:08:21        ">
   <rdf:RDF xmlns:rdf="http://www.w3.org/1999/02/22-rdf-syntax-ns#">
      <rdf:Description rdf:about=""/>
   </rdf:RDF>
</x:xmpmeta>
                                                                                                    
                                                                                                    
                                                                                                    
                                                                                                    
                                                                                                    
                                                                                                    
                                                                                                    
                                                                                                    
                                                                                                    
                                                                                                    
                                                                                                    
                                                                                                    
                                                                                                    
                                                                                                    
                                                                                                    
                                                                                                    
                                                                                                    
                                                                                                    
                                                                                                    
                                                                                                    
                           
<?xpacket end="w"?></metadata>
<defs>
    <style>
      .cls-1 {
        fill: #e30933;
        fill-rule: evenodd;
      }
    </style>
  </defs>
  <path id="Forma_1" data-name="Forma 1" class="cls-1" d="M781.1,2577.97h0s0-.01.006-0.01a1.382,1.382,0,0,0,.392-0.28,0.7,0.7,0,0,0,.1-0.11,1.463,1.463,0,0,0,.206-0.3c0.022-.05.046-0.08,0.064-0.13,0.01-.02.024-0.04,0.033-0.06a1.577,1.577,0,0,0,.089-0.42,0.3,0.3,0,0,0,0-.04,1.5,1.5,0,0,0-.05-0.45c-0.005-.02,0-0.04-0.006-0.06l-2.913-9.27a1.158,1.158,0,0,0-1.639-.72,1.57,1.57,0,0,0-.83,1.85l1.569,5a33.646,33.646,0,0,0-9.559-3.58c-15.122-3.47-30.6,5.02-34.5,18.93a1.313,1.313,0,0,0,.664,1.6l0.189,0.06a1.443,1.443,0,0,0,1.627-1.1c3.473-12.38,17.488-19.89,31.282-16.73a31.667,31.667,0,0,1,9.317,3.58l-6.124.77a1.546,1.546,0,0,0-1.276,1.56,1.186,1.186,0,0,0,1.322,1.23l9.654-1.21A1.649,1.649,0,0,0,781.1,2577.97Z" transform="translate(-734 -2566.03)"/>
</svg>
