<svg xmlns="http://www.w3.org/2000/svg" width="15.97" height="13" viewBox="0 0 15.97 13">
  <metadata><?xpacket begin="﻿" id="W5M0MpCehiHzreSzNTczkc9d"?>
<x:xmpmeta xmlns:x="adobe:ns:meta/" x:xmptk="Adobe XMP Core 5.6-c140 79.160451, 2017/05/06-01:08:21        ">
   <rdf:RDF xmlns:rdf="http://www.w3.org/1999/02/22-rdf-syntax-ns#">
      <rdf:Description rdf:about=""/>
   </rdf:RDF>
</x:xmpmeta>
                                                                                                    
                                                                                                    
                                                                                                    
                                                                                                    
                                                                                                    
                                                                                                    
                                                                                                    
                                                                                                    
                                                                                                    
                                                                                                    
                                                                                                    
                                                                                                    
                                                                                                    
                                                                                                    
                                                                                                    
                                                                                                    
                                                                                                    
                                                                                                    
                                                                                                    
                                                                                                    
                           
<?xpacket end="w"?></metadata>
<defs>
    <style>
      .cls-1 {
        fill: #262626;
        fill-rule: evenodd;
      }
    </style>
  </defs>
  <path id="Email_Icon" data-name="Email Icon" class="cls-1" d="M1033.97,5509.5a0.508,0.508,0,0,1-.5.5H1018.5a0.5,0.5,0,0,1-.5-0.5v-12.01c0-.01.01-0.01,0.01-0.02a0.451,0.451,0,0,1,.12-0.3,0.1,0.1,0,0,1,.01-0.03,0.076,0.076,0,0,1,.04-0.02,0.536,0.536,0,0,1,.27-0.11c0.02,0,.04-0.01.06-0.01h14.95c0.02,0,.04.01,0.06,0.01a0.471,0.471,0,0,1,.26.11,0.052,0.052,0,0,1,.04.02,0.077,0.077,0,0,1,.02.03,0.451,0.451,0,0,1,.12.3c0,0.01.01,0.01,0.01,0.02v12.01Zm-14.97-1a0.5,0.5,0,0,0,.5.5h12.97a0.5,0.5,0,0,0,.5-0.5v-9.98l-6.62,5.3a0.037,0.037,0,0,1-.01.03,0.5,0.5,0,0,1-.36.14,0.46,0.46,0,0,1-.35-0.14,0.037,0.037,0,0,1-.01-0.03l-6.62-5.3v9.98Zm6.98-5.63,6.08-4.87h-12.15Z" transform="translate(-1018 -5497)"/>
</svg>
