<svg xmlns="http://www.w3.org/2000/svg" width="135" height="28" viewBox="0 0 135 28">
  <metadata><?xpacket begin="﻿" id="W5M0MpCehiHzreSzNTczkc9d"?>
<x:xmpmeta xmlns:x="adobe:ns:meta/" x:xmptk="Adobe XMP Core 5.6-c140 79.160451, 2017/05/06-01:08:21        ">
   <rdf:RDF xmlns:rdf="http://www.w3.org/1999/02/22-rdf-syntax-ns#">
      <rdf:Description rdf:about=""/>
   </rdf:RDF>
</x:xmpmeta>
                                                                                                    
                                                                                                    
                                                                                                    
                                                                                                    
                                                                                                    
                                                                                                    
                                                                                                    
                                                                                                    
                                                                                                    
                                                                                                    
                                                                                                    
                                                                                                    
                                                                                                    
                                                                                                    
                                                                                                    
                                                                                                    
                                                                                                    
                                                                                                    
                                                                                                    
                                                                                                    
                           
<?xpacket end="w"?></metadata>
<defs>
    <style>
      .cls-1 {
        fill: #1d2136;
        fill-rule: evenodd;
      }
    </style>
  </defs>
  <path id="FazaRosta" class="cls-1" d="M399.557,136.5l-3.508-3.5-3.508-3.5-3.508-3.5-3.509,3.5-3.508,3.5-3.508,3.5L375,140l3.508,3.5,3.508-3.5,3.508,3.5,3.509-3.5-3.509-3.5,3.509-3.5,3.508,3.5,3.508,3.5,3.508,3.5,3.508-3.5ZM389.033,154l-3.509-3.5,3.509-3.5,3.508,3.5Zm26.131-7.533h2.877v-5.93H423.1v-2.5h-5.057v-3.214h7.15v-2.5H415.164v14.14Zm18.877,0v-7.1a3.489,3.489,0,0,0-1.09-2.8,4.8,4.8,0,0,0-3.2-.934,9.45,9.45,0,0,0-2.115.229,8.208,8.208,0,0,0-1.874.662l0.762,2.02a7.275,7.275,0,0,1,1.417-.521,5.925,5.925,0,0,1,1.439-.174q1.962,0,1.962,1.693v0.717a5.182,5.182,0,0,0-1.275-.4,7.7,7.7,0,0,0-1.254-.1,5.226,5.226,0,0,0-1.558.227,4.163,4.163,0,0,0-1.3.663,3.111,3.111,0,0,0-.894,1.087,3.3,3.3,0,0,0-.327,1.5,3.786,3.786,0,0,0,.305,1.6,2.954,2.954,0,0,0,.807,1.075,3.262,3.262,0,0,0,1.155.608,4.669,4.669,0,0,0,1.352.2,5.2,5.2,0,0,0,1.427-.238,3.747,3.747,0,0,0,1.515-.891l0.044,0.022v0.869h2.7Zm-2.7-2.867a3.652,3.652,0,0,1-1,.695,2.6,2.6,0,0,1-1.133.281,1.88,1.88,0,0,1-1.254-.379,1.332,1.332,0,0,1-.447-1.075,1.278,1.278,0,0,1,.513-1.1,2.075,2.075,0,0,1,1.275-.381,3.651,3.651,0,0,1,1.144.162,5,5,0,0,1,.905.4V143.6Zm4.97-7.733v2.172h5.1l0.022,0.021v0.022l-2.725,3.15q-1.352,1.565-2.724,3.128v2.107h8.85v-2.151h-5.624l-0.022-.043,5.559-6.32v-2.086h-8.436Zm19.4,10.6v-7.1a3.486,3.486,0,0,0-1.09-2.8,4.8,4.8,0,0,0-3.2-.934,9.457,9.457,0,0,0-2.115.229,8.208,8.208,0,0,0-1.874.662l0.763,2.02a7.244,7.244,0,0,1,1.416-.521,5.925,5.925,0,0,1,1.439-.174q1.962,0,1.962,1.693v0.717a5.182,5.182,0,0,0-1.275-.4,7.7,7.7,0,0,0-1.254-.1,5.226,5.226,0,0,0-1.558.227,4.174,4.174,0,0,0-1.3.663,3.111,3.111,0,0,0-.894,1.087,3.3,3.3,0,0,0-.327,1.5,3.8,3.8,0,0,0,.305,1.6,2.965,2.965,0,0,0,.807,1.075,3.262,3.262,0,0,0,1.155.608,4.669,4.669,0,0,0,1.352.2,5.208,5.208,0,0,0,1.428-.238,3.75,3.75,0,0,0,1.514-.891l0.044,0.022v0.869h2.7Zm-2.7-2.867a3.637,3.637,0,0,1-1,.695,2.6,2.6,0,0,1-1.133.281,1.88,1.88,0,0,1-1.254-.379,1.332,1.332,0,0,1-.446-1.075,1.277,1.277,0,0,1,.512-1.1,2.075,2.075,0,0,1,1.275-.381,3.651,3.651,0,0,1,1.144.162,5,5,0,0,1,.9.4V143.6Zm16.021-8.8a3.71,3.71,0,0,0-1.024-1.39,4.4,4.4,0,0,0-1.548-.814,6.645,6.645,0,0,0-1.94-.271h-6.3v14.14h2.855v-5.191h2.877l2.289,5.191h3.03l-2.615-5.582a3.962,3.962,0,0,0,2.016-1.456,4.447,4.447,0,0,0,.73-2.65A4.9,4.9,0,0,0,469.026,134.8Zm-4.8,0a2.432,2.432,0,0,1,1.591.5,1.8,1.8,0,0,1,.611,1.477,1.934,1.934,0,0,1-.578,1.531,2.4,2.4,0,0,1-1.646.511H461.07V134.8h3.161Zm13.646,11.523a4.531,4.531,0,0,0,1.613-1.1,5.085,5.085,0,0,0,1.057-1.749,7.263,7.263,0,0,0,.011-4.616,5.076,5.076,0,0,0-1.035-1.738,4.432,4.432,0,0,0-1.6-1.1,5.714,5.714,0,0,0-4.1,0,4.6,4.6,0,0,0-1.613,1.086,4.848,4.848,0,0,0-1.046,1.738,7.467,7.467,0,0,0-.011,4.615,5.016,5.016,0,0,0,1.014,1.738,4.437,4.437,0,0,0,1.58,1.107,5.3,5.3,0,0,0,2.082.391A5.391,5.391,0,0,0,477.877,146.325Zm-0.327-7.493a4.25,4.25,0,0,1,.588,2.357,5.016,5.016,0,0,1-.152,1.259,3.59,3.59,0,0,1-.436,1.032,2.082,2.082,0,0,1-.709.7,1.874,1.874,0,0,1-.97.25,1.933,1.933,0,0,1-1.7-.857,5.124,5.124,0,0,1-.022-4.725,1.832,1.832,0,0,1,1.657-.913A1.948,1.948,0,0,1,477.55,138.832Zm13.133,3.313a2.835,2.835,0,0,0-.784-0.979,4.9,4.9,0,0,0-1.243-.7,16.618,16.618,0,0,0-1.646-.554,3.969,3.969,0,0,1-1.3-.543,0.837,0.837,0,0,1-.359-0.673,0.759,0.759,0,0,1,.414-0.619,1.95,1.95,0,0,1,1.09-.271,7.2,7.2,0,0,1,1.264.14,5.8,5.8,0,0,1,1.678.64l0.873-2a8.265,8.265,0,0,0-3.881-.934,4.917,4.917,0,0,0-3.073.858,2.728,2.728,0,0,0-1.112,2.27,2.469,2.469,0,0,0,.916,2.052,8.194,8.194,0,0,0,2.724,1.271,7.814,7.814,0,0,1,1.428.565,0.946,0.946,0,0,1,.512.89,0.791,0.791,0,0,1-.512.772,2.854,2.854,0,0,1-1.166.228,5.9,5.9,0,0,1-1.559-.24,7.9,7.9,0,0,1-1.754-.738l-0.938,1.955a9.386,9.386,0,0,0,2.071.858,8.12,8.12,0,0,0,2.224.314,6.726,6.726,0,0,0,1.765-.217,4.523,4.523,0,0,0,1.4-.618,2.837,2.837,0,0,0,.916-1.01,2.9,2.9,0,0,0,.327-1.391A3.007,3.007,0,0,0,490.683,142.145Zm5.962-9.775-2.66,1.042v2.455h-1.634v2.107h1.591v5.712a2.966,2.966,0,0,0,.774,2.3,3.065,3.065,0,0,0,2.125.695,6.958,6.958,0,0,0,1.3-.13,11.849,11.849,0,0,0,1.254-.3l-0.218-2.129-0.731.076q-0.316.031-.577,0.032a1.253,1.253,0,0,1-.96-0.294,1.6,1.6,0,0,1-.261-1.052v-4.909h2.223v-2.107h-2.223v-3.5Zm13.362,14.1v-7.1a3.486,3.486,0,0,0-1.09-2.8,4.8,4.8,0,0,0-3.2-.934,9.448,9.448,0,0,0-2.114.229,8.2,8.2,0,0,0-1.875.662l0.763,2.02a7.228,7.228,0,0,1,1.417-.521,5.917,5.917,0,0,1,1.438-.174q1.962,0,1.962,1.693v0.717a5.156,5.156,0,0,0-1.275-.4,7.685,7.685,0,0,0-1.253-.1,5.233,5.233,0,0,0-1.559.227,4.174,4.174,0,0,0-1.3.663,3.111,3.111,0,0,0-.894,1.087,3.3,3.3,0,0,0-.327,1.5,3.785,3.785,0,0,0,.306,1.6,2.963,2.963,0,0,0,.806,1.075,3.262,3.262,0,0,0,1.155.608,4.674,4.674,0,0,0,1.352.2,5.2,5.2,0,0,0,1.428-.238,3.753,3.753,0,0,0,1.515-.891L507.3,145.6v0.869h2.7Zm-2.7-2.867a3.647,3.647,0,0,1-1,.695,2.609,2.609,0,0,1-1.134.281,1.876,1.876,0,0,1-1.253-.379,1.332,1.332,0,0,1-.447-1.075,1.277,1.277,0,0,1,.512-1.1,2.075,2.075,0,0,1,1.275-.381,3.657,3.657,0,0,1,1.145.162,4.992,4.992,0,0,1,.9.4V143.6Z" transform="translate(-375 -126)"/>
</svg>
