<svg xmlns="http://www.w3.org/2000/svg" width="16" height="16" viewBox="0 0 16 16">
  <metadata><?xpacket begin="﻿" id="W5M0MpCehiHzreSzNTczkc9d"?>
<x:xmpmeta xmlns:x="adobe:ns:meta/" x:xmptk="Adobe XMP Core 5.6-c140 79.160451, 2017/05/06-01:08:21        ">
   <rdf:RDF xmlns:rdf="http://www.w3.org/1999/02/22-rdf-syntax-ns#">
      <rdf:Description rdf:about=""/>
   </rdf:RDF>
</x:xmpmeta>
                                                                                                    
                                                                                                    
                                                                                                    
                                                                                                    
                                                                                                    
                                                                                                    
                                                                                                    
                                                                                                    
                                                                                                    
                                                                                                    
                                                                                                    
                                                                                                    
                                                                                                    
                                                                                                    
                                                                                                    
                                                                                                    
                                                                                                    
                                                                                                    
                                                                                                    
                                                                                                    
                           
<?xpacket end="w"?></metadata>
<defs>
    <style>
      .cls-1 {
        fill: #262626;
        fill-rule: evenodd;
      }
    </style>
  </defs>
  <path id="Icon" class="cls-1" d="M1018.97,5609.87v-0.04c0.41-.28,2.7-1.79,3.13-2.06a0.715,0.715,0,0,1,.32.1c0.17,0.09.68,0.37,1.39,0.78l0.55,0.31,0.52-.37a20.1,20.1,0,0,0,2.5-2.19,19.853,19.853,0,0,0,2.2-2.49l0.37-.52-0.32-.55c-0.3-.53-0.67-1.18-0.78-1.39a0.726,0.726,0,0,1-.1-0.31c0-.01,0-0.01.01-0.01,0.24-.39,1.79-2.71,2.07-3.13a0.343,0.343,0,0,1,.23.08,7.251,7.251,0,0,1,1.93,1.88c-0.09,1.87-1.74,4.5-4.65,7.4s-5.54,4.55-7.41,4.63a7.089,7.089,0,0,1-1.89-1.91,0.4,0.4,0,0,1-.07-0.21m-0.97,0a1.362,1.362,0,0,0,.25.78c0.02,0.03,1.69,2.37,2.66,2.34,2.73-.08,5.93-2.72,8.14-4.92s4.86-5.4,4.94-8.13v-0.02c0-.95-2.32-2.63-2.34-2.65a1.155,1.155,0,0,0-1.61.12c-0.17.25-1.95,2.92-2.15,3.24a0.975,0.975,0,0,0-.14.51,1.747,1.747,0,0,0,.22.78c0.13,0.25.58,1.03,0.79,1.41a17.634,17.634,0,0,1-2.09,2.37,19.059,19.059,0,0,1-2.37,2.08c-0.38-.22-1.16-0.66-1.42-0.8a1.307,1.307,0,0,0-1.29-.07c-0.31.19-2.97,1.96-3.22,2.14a0.987,0.987,0,0,0-.37.82h0Z" transform="translate(-1018 -5597)"/>
</svg>
