<svg id="Группа_9" data-name="Группа 9" xmlns="http://www.w3.org/2000/svg" width="32" height="32" viewBox="0 0 32 32">
  <metadata><?xpacket begin="﻿" id="W5M0MpCehiHzreSzNTczkc9d"?>
<x:xmpmeta xmlns:x="adobe:ns:meta/" x:xmptk="Adobe XMP Core 5.6-c140 79.160451, 2017/05/06-01:08:21        ">
   <rdf:RDF xmlns:rdf="http://www.w3.org/1999/02/22-rdf-syntax-ns#">
      <rdf:Description rdf:about=""/>
   </rdf:RDF>
</x:xmpmeta>
                                                                                                    
                                                                                                    
                                                                                                    
                                                                                                    
                                                                                                    
                                                                                                    
                                                                                                    
                                                                                                    
                                                                                                    
                                                                                                    
                                                                                                    
                                                                                                    
                                                                                                    
                                                                                                    
                                                                                                    
                                                                                                    
                                                                                                    
                                                                                                    
                                                                                                    
                                                                                                    
                           
<?xpacket end="w"?></metadata>
<defs>
    <style>
      .cls-1 {
        fill: #e30933;
      }

      .cls-2 {
        fill: #fff;
        fill-rule: evenodd;
      }
    </style>
  </defs>
  <circle id="Эллипс_8" data-name="Эллипс 8" class="cls-1" cx="16" cy="16" r="16"/>
  <path id="_" data-name="?" class="cls-2" d="M419.109,1111.82v-0.86a1.818,1.818,0,0,1,.42-1.12,6.6,6.6,0,0,1,1.02-1.03c0.4-.32.8-0.68,1.212-1.05a4.686,4.686,0,0,0,1.032-1.47,4.624,4.624,0,0,0,.42-1.98,4.063,4.063,0,0,0-1.692-3.44,6.355,6.355,0,0,0-3.9-1.26,6.792,6.792,0,0,0-5.016,1.99l2.3,2.81a3.509,3.509,0,0,1,2.28-1.03,1.853,1.853,0,0,1,1.2.4,1.265,1.265,0,0,1,.5,1.01,1.733,1.733,0,0,1-.384,1.06,5.892,5.892,0,0,1-.936.95c-0.368.29-.74,0.61-1.116,0.93a4.17,4.17,0,0,0-.948,1.25,3.555,3.555,0,0,0-.384,1.64v1.2h3.984Zm-0.1,5.31v-3.6h-3.792v3.6h3.792Z" transform="translate(-402 -1092)"/>
</svg>
